<svg xmlns="http://www.w3.org/2000/svg" version="1.1" xmlns:xlink="http://www.w3.org/1999/xlink" xmlns:svgjs="http://svgjs.dev/svgjs" width="100%" height="100%" viewBox="0 0 1000 600"><rect width="1000" height="600" x="0" y="0" fill="white"/><g><circle r="166.66666666666666" cx="406.2772013346354" cy="428.49936583701026" fill="#ffffff" transform="matrix(0.521680033868446,0,0,0.521680033868446,0,76.46044096272249)"/><path d="M348.80613437375155 471.2139964428081L348.80613437375155 471.2139964428081Q333.6998982497213 471.2139964428081 322.50625501544835 464.6066375892442Q311.3126117811755 457.9733675244899 305.249388362611 445.9505655321227Q299.18616494404654 433.9018523285651 299.18616494404654 417.6814341233456L299.18616494404654 417.6814341233456Q299.18616494404654 403.87075855883757 303.48742600166065 392.1329798895653Q307.7627758480843 380.3692900091026 315.51022799402784 371.689034260303Q323.25768013997134 363.00877851150346 333.6221646161499 358.2670268636518Q343.9607378811381 353.4993640046096 356.08718471826705 353.4993640046096L356.08718471826705 353.4993640046096Q368.965056679919 353.4993640046096 379.588653268002 359.3812089448409Q390.23816106727554 365.2630538850723 396.58640780893495 377.46723435577263Q402.9087433394039 389.69732603766334 402.9087433394039 408.534776573118L402.9087433394039 408.534776573118Q402.9087433394039 431.4921096878536 393.1143055094151 447.3497709364068Q383.31986767942635 463.2074321849601 366.16664587135074 468.6228753237634L366.16664587135074 468.6228753237634Q370.0792387611082 473.64965029471 376.71250882586247 477.27721986137254Q383.31986767942635 480.9307006392255 391.24869830370295 483.1590648016039Q399.1775289279796 485.4133401751727 406.8472474403518 486.4238774116002Q414.4910547415335 487.460325859218 420.63201179366934 487.460325859218L420.63201179366934 487.460325859218Q427.9130621381848 487.460325859218 434.07993040151104 486.4238774116002Q440.22088745364687 485.4133401751727 444.1593915545947 484.1955132492218Q448.07198444435215 482.97768632327075 448.6161198793515 482.79630784493764L448.6161198793515 482.79630784493764L450.8703952529204 485.77609713183904L449.36754500387445 499.7681511746801Q442.65654130554884 501.45237990205914 435.3754909610334 502.46291713848655Q428.0944406165179 503.49936558610443 420.63201179366934 503.49936558610443L420.63201179366934 503.49936558610443Q406.6399577508282 503.49936558610443 395.834982684412 500.13090813134636Q385.0040964068054 496.78836188777876 376.99753214895736 491.55429722730855Q368.965056679919 486.3461437780288 363.73099201944876 480.8270557944637Q358.52283857016903 475.33387902208904 355.9058062399339 470.8512394861418L355.9058062399339 470.8512394861418Q352.3559703068428 471.2139964428081 348.80613437375155 471.2139964428081ZM351.0604097473204 460.2276428980588L351.0604097473204 460.2276428980588Q362.61680993825956 460.2276428980588 370.0015051275368 453.30934951020953Q377.3602891056236 446.41696733355076 380.98785867228617 435.2233240992779Q384.64133945013907 424.029680865005 384.64133945013907 411.15180890335307L384.64133945013907 411.15180890335307Q384.64133945013907 395.2941476547998 379.8736765910969 384.7482847002881Q375.1319249432452 374.20242174577635 367.6694961203966 368.8906234517348Q360.20706729754806 363.5788251576933 351.60454518231984 363.5788251576933L351.60454518231984 363.5788251576933Q343.5979809244718 363.5788251576933 335.4877718218621 368.6056001286399Q327.3516515080619 373.658286310777 321.962119580449 384.20414926528866Q316.5466764416457 394.72410100861 316.5466764416457 411.72185554954285L316.5466764416457 411.72185554954285Q316.5466764416457 425.71390959238397 320.74429265449805 436.70026313713333Q324.9419088673503 447.7125278930731 332.6893610132938 453.9571297899707Q340.4109019480469 460.2276428980588 351.0604097473204 460.2276428980588ZM467.0908134581399 468.9856322804296L424.9332728512834 468.9856322804296L423.4304226022375 460.77177833305814Q429.23453390889756 460.77177833305814 431.82565502794216 459.7612410966307Q434.4426873581773 458.72479264901284 435.19411248270023 456.39278364187265Q435.9455376072232 454.06077463473247 436.12691608555633 450.1481817449751L436.12691608555633 450.1481817449751Q436.6969627317461 436.9075528266569 437.05971968841243 426.07666654905023Q437.42247664507863 415.2457802714436 437.42247664507863 405.5549872862166L437.42247664507863 405.5549872862166L437.42247664507863 378.68506128172356Q437.42247664507863 372.54410422958773 434.7277106812722 367.9578198488787Q432.03294471746574 363.39744667936014 422.704908688905 363.39744667936014L422.704908688905 363.39744667936014L421.2020584398591 354.43216760746566Q425.2960298079497 354.61354608579876 428.8458657410408 354.71719093056055Q432.39570167413206 354.82083577532234 435.3754909610334 354.82083577532234L435.3754909610334 354.82083577532234Q440.03950897531377 354.82083577532234 442.2937843488826 354.82083577532234Q444.522148511261 354.82083577532234 446.3877557169731 354.71719093056055Q448.25336292268526 354.61354608579876 451.6218203774433 354.43216760746566L451.6218203774433 354.43216760746566Q456.82997382672306 354.0694106507994 462.42679544385953 353.88803217246624Q468.023617060996 353.6807424829427 471.2106960374209 353.6807424829427L471.2106960374209 353.6807424829427Q487.2497357643073 353.6807424829427 496.9405287495342 360.59903587079197Q506.6572329459517 367.4914180474507 506.6572329459517 380.3692900091026L506.6572329459517 380.3692900091026Q506.6572329459517 388.40176547814104 502.6409952114325 396.04557277932275Q498.62475747691326 403.68938008050446 491.34370713239787 407.23921601359564L491.34370713239787 407.23921601359564Q502.1745934100045 410.219005300497 507.77141502714096 418.04419108001184Q513.3682366442773 425.89528807071713 513.3682366442773 436.156127702134L513.3682366442773 436.156127702134Q513.3682366442773 448.1011960609298 506.6572329459517 455.27860156068346Q499.9203180364357 462.4560070604371 489.4003662931143 465.7208196704334Q478.8545033386026 468.9856322804296 467.0908134581399 468.9856322804296L467.0908134581399 468.9856322804296ZM450.48172708506365 404.2594267266943L459.4470061569582 404.4408052050274L469.5264673100419 404.0521370371707Q477.1702746112236 403.68938008050446 481.36789082407597 400.061810513842Q485.56550703692824 396.408329735989 487.2497357643073 391.3815547650424Q488.9339644916863 386.32886858290533 488.9339644916863 382.2348972148148L488.9339644916863 382.2348972148148Q488.9339644916863 372.90686118625405 482.4820729052651 367.4914180474507Q476.0560925300344 362.07597490864737 465.61387442028445 362.07597490864737L465.61387442028445 362.07597490864737Q462.0640384871933 362.07597490864737 458.04780075267405 362.6460215548372Q454.0315630181549 363.21606820102704 451.8031988557765 364.1488718038831L451.8031988557765 364.1488718038831Q451.05177373125355 372.3368145400642 450.7667504081586 382.597654171481Q450.48172708506365 392.85849380289784 450.48172708506365 404.2594267266943L450.48172708506365 404.2594267266943ZM465.40658473076087 459.2948392952027L465.40658473076087 459.2948392952027Q479.60592846312557 459.2948392952027 487.61249272097353 453.2316158766382Q495.6449681900119 447.1683924580737 495.6449681900119 436.3375061804671L495.6449681900119 436.3375061804671Q495.6449681900119 426.4394235057165 488.64894116859136 420.01344313048577Q481.6529141471708 413.58746275525505 467.6608601043297 413.58746275525505L467.6608601043297 413.58746275525505Q463.74826721457225 413.58746275525505 458.69558103243526 414.05386455668304Q453.66880606148857 414.5202663581111 450.30034860673055 415.0644017931105L450.30034860673055 415.0644017931105L450.30034860673055 421.41264853476986Q450.30034860673055 428.87507735761847 450.7667504081586 437.2703097833231Q451.23315220958665 445.6655422090278 451.9845773341096 449.96680326664193L451.9845773341096 449.96680326664193Q453.0987594152988 455.7450033621115 456.36357202529507 457.50696572306185Q459.6283846352913 459.2948392952027 465.40658473076087 459.2948392952027Z " fill="&#9;#2E8B57" transform="matrix(0.521680033868446,0,0,0.521680033868446,0,76.46044096272249)"/><path d="M703.2672193456535 472.92517610307294L703.2672193456535 472.92517610307294Q688.9616413198071 472.92517610307294 678.3612816162638 466.66801933362035Q667.7609219127207 460.3863246944837 662.0190604066347 449.0007531610484Q656.2771989005489 437.590643757929 656.2771989005489 422.22993733566506L656.2771989005489 422.22993733566506Q656.2771989005489 409.151252794025 660.3504852681141 398.0355978271151Q664.3992337659952 386.8954049905212 671.7360568015494 378.67521864633835Q679.0728798371035 370.4550323021556 688.8880277107546 365.9646021499602Q698.6786377147216 361.44963412808073 710.1623607268934 361.44963412808073L710.1623607268934 361.44963412808073Q722.3576819599049 361.44963412808073 732.4182085303972 367.01973054637773Q742.5032729705737 372.5898269646747 748.5150510431849 384.14716358589885Q754.5022912461121 395.7290380768071 754.5022912461121 413.568069337168L754.5022912461121 413.568069337168Q754.5022912461121 435.30862187730514 745.2269765055119 450.3257981239913Q735.9516617649116 465.3429743706775 719.7075920340191 470.47138913466017L719.7075920340191 470.47138913466017Q723.4128103563223 475.23173585338094 729.694504995459 478.6670376091588Q735.9516617649116 482.12687723462085 743.4602498882547 484.2371340274558Q750.9688380115978 486.371928689975 758.2320474380996 487.32890560765594Q765.4707189949172 488.310420395021 771.2861941100555 488.310420395021L771.2861941100555 488.310420395021Q778.1813354912954 488.310420395021 784.0213484761177 487.32890560765594Q789.8368235912561 486.371928689975 793.5665797832435 485.21864881482094Q797.2717981055468 484.06536893966694 797.7870933689135 483.893603851878L797.7870933689135 483.893603851878L799.9218880314326 486.7154588655527L798.4986915897532 499.9659084949817Q792.1433833415641 501.56087002444997 785.2482419603242 502.517846942131Q778.3531005790843 503.49936172949606 771.2861941100555 503.49936172949606L771.2861941100555 503.49936172949606Q758.0357444806266 503.49936172949606 747.8034528223453 500.3094386705595Q737.54662329438 497.14405348130697 729.9644215619844 492.1874038051132Q722.3576819599049 487.2552919986035 717.4010322837111 482.02872575588435Q712.4689204772014 476.82669738284926 709.9905956391044 472.5816459274952L709.9905956391044 472.5816459274952Q706.628907492379 472.92517610307294 703.2672193456535 472.92517610307294ZM705.4020140081726 462.5211193570028L705.4020140081726 462.5211193570028Q716.3459038872936 462.5211193570028 723.33919674727 455.9695081513407Q730.3079517375622 449.44243481536273 733.74325349334 438.84207511181955Q737.2030931188021 428.2417154082764 737.2030931188021 416.0463941752649L737.2030931188021 416.0463941752649Q737.2030931188021 401.0292179285787 732.6881250969226 391.04230496713876Q728.1976949447272 381.05539200569876 721.1307884756984 376.0251287204525Q714.0638820066697 370.9948654352064 705.9173092715394 370.9948654352064L705.9173092715394 370.9948654352064Q698.3351075391438 370.9948654352064 690.6547543280119 375.7552121539272Q682.9498632471957 380.5400967423321 677.8459863528972 390.5270097037721Q672.7175715889146 400.48938479552794 672.7175715889146 416.5862273083157L672.7175715889146 416.5862273083157Q672.7175715889146 429.83667693774464 676.6927064777432 440.2407336838148Q680.6678413665718 450.6693282995691 688.0046644021261 456.5829548934439Q695.3169495679961 462.5211193570028 705.4020140081726 462.5211193570028ZM800.2654182070104 472.7534110152841L800.2654182070104 472.7534110152841Q792.1433833415641 472.7534110152841 787.89833188621 468.8764276051919Q783.653280430856 464.97490632541553 782.0828567710716 458.3496815107011Q780.4878952416034 451.7244566959866 780.4878952416034 443.97048987580223L780.4878952416034 443.97048987580223Q780.4878952416034 441.32039994991646 780.6596603293923 436.9771970158258Q780.8314254171812 432.6585319514194 781.1994934624431 426.4749887910192L781.1994934624431 426.4749887910192Q781.5430236380209 422.40170242345397 781.7147887258097 417.9112722712586Q781.8865538135988 413.3963042493791 781.8865538135988 408.0961243976075L781.8865538135988 408.0961243976075Q781.8865538135988 403.8510729422534 779.236463887713 402.0843463249962Q776.5863739618271 400.317619707739 773.2492236847858 399.8759380534247Q769.8875355380602 399.43425639911044 767.5809757877522 399.43425639911044L767.5809757877522 399.43425639911044L766.6976124791237 399.43425639911044L765.814249170495 390.60062331282444L773.9362840359413 390.77238840061335Q780.8314254171812 390.96869135808635 786.6714384020036 390.33070674629903Q792.4869135171418 389.71726000419585 797.7870933689135 389.0056617833561L797.7870933689135 389.0056617833561Q796.0203667516563 397.8392948696421 795.3333064005006 408.8813362274996Q794.621708179661 419.92337758535706 794.621708179661 430.18020711332247L794.621708179661 430.18020711332247Q794.621708179661 434.59702365646547 794.7934732674498 439.11199167834496Q794.9652383552389 443.6024218305403 795.3333064005006 446.2525117564261L795.3333064005006 446.2525117564261Q796.3884347969182 452.97588804987714 800.6334862522723 456.1412732391296Q804.8539998379423 459.3311962980662 810.8657779105536 459.3311962980662L810.8657779105536 459.3311962980662Q816.7057908953759 459.3311962980662 820.5827743054681 457.0246365477582Q824.4842955852444 454.7426146671343 826.5945523780795 451.92075965345964Q828.7048091709144 449.0743667701008 829.588172479543 447.3076401528436L829.588172479543 447.3076401528436Q829.784475437016 442.5472934341228 829.784475437016 437.24711358235123L829.784475437016 437.24711358235123L829.784475437016 409.8628510148647Q829.588172479543 404.3909060753042 827.0362340323937 402.01073271594385Q824.4842955852444 399.6060214868993 821.1962210475713 399.0907262235326Q817.9326843795823 398.55089309048185 815.2825944536966 398.55089309048185L815.2825944536966 398.55089309048185L814.0557009694901 398.55089309048185L813.0005725730726 390.4288582250356Q814.5709962328568 390.60062331282444 816.5340258075871 390.60062331282444Q818.4725175126332 390.60062331282444 820.4110092176793 390.60062331282444L820.4110092176793 390.60062331282444Q827.3061505989192 390.60062331282444 834.4466706770003 390.08532804945776Q841.6117286247656 389.54549491640694 846.0285451679085 388.83389669556726L846.0285451679085 388.83389669556726L844.6053487262292 408.0961243976075Q843.9182883750736 418.86824918893956 843.7219854176005 428.2417154082764Q843.5502203298116 437.590643757929 843.5502203298116 445.9089815808483L843.5502203298116 445.9089815808483Q843.5502203298116 451.3809265204088 844.3599700293879 455.1842963214486Q845.14518185928 458.9876661224884 848.1388019607435 460.99977143658685Q851.1569599318913 463.03641462036944 857.6840332678693 463.20817970815835L857.6840332678693 463.20817970815835L858.9354646217598 470.814919310238L830.1280056125938 470.814919310238Q830.4715357881716 468.704662517403 830.8396038334336 465.1712092828886Q831.1831340090113 461.6377560483742 831.5512020542732 458.27606790164873Q831.894732229851 454.9143797549232 832.0664973176399 453.3194182254549L832.0664973176399 453.3194182254549Q828.3612789953365 458.1043028138598 823.6745458856682 462.5947329660552Q818.9878127759998 467.1097009879347 813.1723376608616 469.93155600160935Q807.3323246760392 472.7534110152841 800.2654182070104 472.7534110152841ZM909.8024684769565 470.814919310238L867.4010296627838 470.814919310238L866.0023710907885 462.5211193570028L867.7690977080458 462.5211193570028Q874.4679361318126 462.5211193570028 877.7314727998016 459.871029431117Q881.0195473374747 457.2209395052312 881.7066076886302 452.2642898290374L881.7066076886302 452.2642898290374Q882.0746757338921 449.44243481536273 882.5163573882065 445.19738336000864Q882.9580390425208 440.95233190465456 882.9580390425208 436.36375027372264L882.9580390425208 436.36375027372264Q882.9580390425208 428.06995032048746 882.8598875637842 419.8497639763047Q882.7862739547319 411.6295776321219 882.41820590947 404.21914098751535L882.41820590947 404.21914098751535Q882.2464408216811 399.80232444437235 878.6148361084302 398.8208096570072Q875.0077692648634 397.8392948696421 867.057499487206 397.8392948696421L867.057499487206 397.8392948696421L866.1741361785774 389.71726000419585Q870.2228846764585 389.71726000419585 875.3512994404412 389.2755783498816Q880.4797142044239 388.83389669556726 885.5099774896701 388.3186014322006Q890.5402407749162 387.77876829914976 894.2699969669037 387.23893516609894Q897.975215289207 386.72363990273226 899.2021087734133 386.55187481494335L899.2021087734133 386.55187481494335Q897.975215289207 397.6675297818532 897.1654655896307 409.0776391849726Q896.3802537597387 420.4632107184079 896.0367235841609 430.0820556345859Q895.668655538899 439.72543842044814 895.668655538899 445.9089815808483L895.668655538899 445.9089815808483Q895.668655538899 457.2209395052312 898.7604271190991 460.5580897822726Q901.8521986992992 463.9197779289981 907.6922116841215 463.9197779289981L907.6922116841215 463.9197779289981L908.4038099049612 463.9197779289981L909.8024684769565 470.814919310238ZM886.835022452613 375.0681518027716L886.835022452613 375.0681518027716Q882.0746757338921 375.0681518027716 879.2528207202175 372.22175891941276Q876.4064278368587 369.3999039057381 876.4064278368587 364.8113222748062L876.4064278368587 364.8113222748062Q876.4064278368587 359.68290751082355 879.6945023745318 356.59113593062347Q882.9580390425208 353.4993643504233 887.3748555856638 353.4993643504233L887.3748555856638 353.4993643504233Q891.7916721288068 353.4993643504233 894.9570573180592 356.321219364098Q898.1469803769959 359.1676122474568 898.1469803769959 364.0997240539665L898.1469803769959 364.0997240539665Q898.1469803769959 369.0563737301603 894.9570573180592 372.0499938316239Q891.7916721288068 375.0681518027716 886.835022452613 375.0681518027716ZM958.2156853637405 473.6367743239126L958.2156853637405 473.6367743239126Q948.326923881037 473.6367743239126 939.7632073612765 469.93155600160935Q931.1749529718318 466.2263376793061 926.0710760775332 458.1043028138598Q920.9426613135505 449.9577300787294 920.9426613135505 437.0753484945624L920.9426613135505 437.0753484945624Q920.9426613135505 428.2417154082764 923.6663648484887 419.48169593104274Q926.4146062531111 410.7462143234933 932.0583162804603 403.581156375728Q937.7265641774939 396.44063629764685 946.4620457850433 392.09743336355626Q955.2220652622769 387.77876829914976 967.0493184500265 387.77876829914976L967.0493184500265 387.77876829914976Q976.0547166241013 387.77876829914976 981.3548964758729 389.6436463951435Q986.6550763276446 391.483986621453 987.0231443729065 391.85205466671493L987.0231443729065 391.85205466671493Q987.1949094606953 393.07894815092135 987.1949094606953 394.74752328944203Q987.1949094606953 396.44063629764685 987.1949094606953 398.37912800269294L987.1949094606953 398.37912800269294Q987.1949094606953 401.91258123720735 987.0231443729065 405.7159510382471Q986.8268414154335 409.51932083928693 986.3115461520667 412.51294094075047L986.3115461520667 412.51294094075047L978.1895112866205 411.8013427199108Q976.5945497571522 408.6359575306583 974.9014367489474 405.6177995595106Q973.2328616104267 402.624179458047 970.5827716845408 399.80232444437235L970.5827716845408 399.80232444437235Q968.2762119342328 398.55089309048185 965.5525083992948 397.76568126058976Q962.8042669946724 396.95593156101353 959.8106468932089 396.95593156101353L959.8106468932089 396.95593156101353Q952.915505511969 396.95593156101353 947.8852422267228 401.64266467068194Q942.8549789414765 406.3293977803503 940.2048890155908 414.1079024702188Q937.5547990897049 421.8864071600873 937.5547990897049 431.4071005975288L937.5547990897049 431.4071005975288Q937.5547990897049 446.9641099772658 944.6217055587338 455.257909930501Q951.6886120277625 463.57624775342026 964.0556983485629 463.57624775342026L964.0556983485629 463.57624775342026Q971.2943699053806 463.57624775342026 976.766314844941 461.1960743940599Q982.2382597845016 458.79136316501535 986.1397810642779 455.6259779757629L986.1397810642779 455.6259779757629L989.1334011657415 460.3863246944837Q983.4896911383921 466.74163294267277 975.7848000575759 470.20147256813476Q968.104446846444 473.6367743239126 958.2156853637405 473.6367743239126ZM1041.9634345956686 470.814919310238L998.850397560656 470.814919310238L997.4272011189767 462.5211193570028L999.1939277362338 462.5211193570028Q1005.9173040296848 462.5211193570028 1009.1808406976738 459.94464304016935Q1012.4443773656628 457.3927045930201 1013.1559755865026 452.2642898290374L1013.1559755865026 452.2642898290374Q1013.6958087195533 449.2706697275738 1013.9657252860787 443.2588916549625Q1014.21110398292 437.24711358235123 1014.3092554616564 429.91029054679706Q1014.407406940393 422.5734675112429 1014.407406940393 415.9482426965284Q1014.407406940393 409.3230178818139 1014.407406940393 405.10250429614393L1014.407406940393 405.10250429614393Q1014.407406940393 396.7841664732246 1014.3092554616564 388.56398012904185Q1014.21110398292 380.36833165454317 1013.8675738073422 372.9333571402525L1013.8675738073422 372.9333571402525Q1013.6958087195533 368.34477550932064 1010.0642040063024 367.461412200692Q1006.4571371627356 366.5780488920634 998.5068673850783 366.5780488920634L998.5068673850783 366.5780488920634L997.6235040764496 358.45601402661714Q1001.6722525743307 358.45601402661714 1006.8988188170499 358.08794598135523Q1012.100847190085 357.74441580577746 1017.2292619540677 357.20458267272664Q1022.3576767180505 356.6892874093599 1026.2346601281427 356.0758406672567Q1030.1116435382348 355.4378560554694 1031.3630748921253 355.09432587989164L1031.3630748921253 355.09432587989164Q1030.4797115834967 362.5047625244982 1029.8662648413933 373.2032737067779Q1029.228280229606 383.9017848890576 1028.8847500540282 395.82718955554367Q1028.5412198784506 407.7525942220297 1028.3449169209775 418.86824918893956L1028.3449169209775 418.86824918893956Q1030.8232417590743 419.4080823219904 1033.8413997302223 419.8497639763047Q1036.8350198316857 420.29144563061897 1039.6568748453606 420.29144563061897L1039.6568748453606 420.29144563061897Q1041.5953665504064 419.23631723420146 1045.0552061758685 414.45143264579656Q1048.4905079316463 409.6910859270758 1052.9073244747892 403.1394747214137L1052.9073244747892 403.1394747214137Q1053.9624528712068 401.5690510616295 1053.9624528712068 400.317619707739L1053.9624528712068 400.317619707739Q1053.9624528712068 397.1522345184865 1049.0303410646973 397.1522345184865L1049.0303410646973 397.1522345184865L1048.1469777560685 390.08532804945776Q1050.4289996366924 390.25709313724667 1052.637407908264 390.4288582250356Q1054.8458161798355 390.60062331282444 1058.5755723718228 390.60062331282444L1058.5755723718228 390.60062331282444Q1062.2807906941262 390.60062331282444 1068.0962658092644 390.4288582250356Q1073.9362787940868 390.25709313724667 1079.2364586458584 390.08532804945776L1079.2364586458584 390.08532804945776L1081.0031852631155 396.61240138543576Q1077.813262204179 396.7841664732246 1074.9177935814519 398.207362914904Q1071.9977870890407 399.6060214868993 1068.2925687667375 403.1394747214137L1068.2925687667375 403.1394747214137Q1064.930880620012 406.3293977803503 1061.47104099455 410.5744492357044Q1058.035739238772 414.8195006910585 1055.0421191373084 418.7946355798872Q1052.023961166161 422.7697704687159 1050.2572345489036 425.4198603946017L1050.2572345489036 425.4198603946017Q1051.852196078372 429.12507871690497 1055.2874978341497 435.21047039856865Q1058.7473374596118 441.32039994991646 1063.7776007448579 447.50394311031664Q1068.8078640301042 453.6874862707168 1075.1631722782931 457.90799985638677Q1081.5430183961664 462.1530513117409 1088.953455040773 462.32481639952977L1088.953455040773 462.32481639952977L1090.5484165702412 469.39172286855853Q1085.2482367184698 470.814919310238 1080.9050337843792 471.60013114013003Q1076.5863687199726 472.40988083970626 1072.7093853098804 472.40988083970626L1072.7093853098804 472.40988083970626Q1071.9977870890407 472.40988083970626 1071.1144237804122 472.40988083970626Q1070.2310604717836 472.40988083970626 1069.3476971631549 472.23811575191735L1069.3476971631549 472.23811575191735Q1065.2744107955898 471.5265175310777 1060.5876776859213 466.66801933362035Q1055.9254824459372 461.8095211361631 1051.3123629453212 455.01253123365973Q1046.7237813143893 448.1910034614722 1042.846797904297 441.1240969924434Q1038.9452766245208 434.05719052341465 1036.295186698635 429.12507871690497L1036.295186698635 429.12507871690497Q1034.1849299058 429.12507871690497 1032.074673112965 429.12507871690497Q1029.9398784504458 429.12507871690497 1028.1731518331887 429.12507871690497L1028.1731518331887 429.12507871690497Q1028.0013867453997 434.59702365646547 1028.0013867453997 439.1856052873973Q1028.0013867453997 443.77418691832924 1028.0013867453997 447.50394311031664L1028.0013867453997 447.50394311031664Q1028.0013867453997 457.2209395052312 1030.9950068468634 460.5580897822726Q1034.013164818011 463.9197779289981 1039.8286399331494 463.9197779289981L1039.8286399331494 463.9197779289981L1040.540238153989 463.9197779289981L1041.9634345956686 470.814919310238ZM1176.0628924194264 470.6431542224491L1097.0754899062192 470.6431542224491L1099.0139816112655 457.7362347685979Q1107.5040845219737 458.27606790164873 1116.5094826960485 458.4478329894376Q1125.5148808701233 458.6195980772265 1133.8332186930427 458.6195980772265L1133.8332186930427 458.6195980772265Q1145.8322369685811 458.6195980772265 1156.7025132386498 458.3496815107011Q1167.5727895087184 458.1043028138598 1177.2897859036327 457.7362347685979L1177.2897859036327 457.7362347685979Q1177.118020815844 460.5580897822726 1176.6763391615295 463.8461643199457Q1176.2346575072154 467.1097009879347 1176.0628924194264 470.6431542224491L1176.0628924194264 470.6431542224491ZM1233.653272568074 470.814919310238L1193.7301585919984 470.814919310238L1192.3069621503191 463.03641462036944Q1197.7789070898796 463.03641462036944 1200.2572319279764 462.0794377026885Q1202.7355567660734 461.09792291532335 1203.4471549869131 458.8895146437519Q1204.1342153380685 456.6811063721804 1204.3305182955414 452.97588804987714L1204.3305182955414 452.97588804987714Q1204.8458135589083 440.4370366412878 1205.2138816041702 430.18020711332247Q1205.5574117797478 419.92337758535706 1205.5574117797478 410.7462143234933L1205.5574117797478 410.7462143234933L1205.5574117797478 385.30044346105285Q1205.5574117797478 379.4849683459146 1203.0054733325987 375.141765411824Q1200.4289970157652 370.8231003474175 1191.5953639294794 370.8231003474175L1191.5953639294794 370.8231003474175L1190.196705357484 362.3329974367093Q1194.0736887675762 362.5047625244982 1197.4353769143017 362.60291400323473Q1200.7970650610273 362.7010654819712 1203.618920074702 362.7010654819712L1203.618920074702 362.7010654819712Q1208.0357366178448 362.7010654819712 1210.14599341068 362.7010654819712Q1212.280788073199 362.7010654819712 1214.0475146904562 362.60291400323473Q1215.8142413077135 362.5047625244982 1218.979626496966 362.3329974367093L1218.979626496966 362.3329974367093Q1223.9362761731595 361.98946726113155 1229.2364560249312 361.81770217334264Q1234.5366358767028 361.6213992158696 1237.5302559781662 361.6213992158696L1237.5302559781662 361.6213992158696Q1252.7191973126414 361.6213992158696 1261.9208984441893 368.1730104215317Q1271.098061706053 374.7000837575097 1271.098061706053 386.8954049905212L1271.098061706053 386.8954049905212Q1271.098061706053 394.50214459260076 1267.2946919050135 401.74081614941844Q1263.5158599736576 408.9794877062361 1256.6207185924177 412.3411758529616L1256.6207185924177 412.3411758529616Q1266.853010250699 415.1630308666363 1272.1531901024707 422.5734675112429Q1277.4533699542424 430.00844202553355 1277.4533699542424 439.72543842044814L1277.4533699542424 439.72543842044814Q1277.4533699542424 451.037396344831 1271.098061706053 457.8343862473344Q1264.742753457864 464.63137614983776 1254.755840496424 467.72314773003785Q1244.768927534984 470.814919310238 1233.653272568074 470.814919310238L1233.653272568074 470.814919310238ZM1217.9244981005481 409.51932083928693L1226.4146010112565 409.6910859270758L1235.9352944486982 409.3230178818139Q1243.1985038752 408.9794877062361 1247.1736387640285 405.5441859504582Q1251.1487736528572 402.0843463249962 1252.7191973126414 397.32399960627544Q1254.31415884211 392.53911501787053 1254.31415884211 388.66213160777835L1254.31415884211 388.66213160777835Q1254.31415884211 379.82849852149235 1248.228767160446 374.7000837575097Q1242.1188376090981 369.571668993527 1232.2300761263948 369.571668993527L1232.2300761263948 369.571668993527Q1228.8683879796693 369.571668993527 1225.0895560483136 370.1115021265778Q1221.2861862472737 370.65133525962864 1219.1513915847547 371.53469856825717L1219.1513915847547 371.53469856825717Q1218.464331233599 379.2886653884416 1218.1944146670737 389.0056617833561Q1217.9244981005481 398.7226581782707 1217.9244981005481 409.51932083928693L1217.9244981005481 409.51932083928693ZM1232.058311038606 461.6377560483742L1232.058311038606 461.6377560483742Q1245.4805257558237 461.6377560483742 1253.0872653579033 455.8958945422883Q1260.669467090299 450.1540330362024 1260.669467090299 439.897203508237L1260.669467090299 439.897203508237Q1260.669467090299 430.52373728890024 1254.0442422755843 424.43834560723656Q1247.4190174608698 418.3529539255729 1234.168567831441 418.3529539255729L1234.168567831441 418.3529539255729Q1230.4633495091375 418.3529539255729 1225.7030027904168 418.7946355798872Q1220.918118202012 419.23631723420146 1217.7527330127596 419.7516124975682L1217.7527330127596 419.7516124975682L1217.7527330127596 425.76339057017947Q1217.7527330127596 432.83029703920823 1218.1944146670737 440.78056681686564Q1218.636096321388 448.730836594523 1219.3476945422276 452.8041229620882L1219.3476945422276 452.8041229620882Q1220.4028229386454 458.27606790164873 1223.4945945188454 459.94464304016935Q1226.5863660990453 461.6377560483742 1232.058311038606 461.6377560483742ZM1311.5610088151795 472.5816459274952L1311.5610088151795 472.5816459274952Q1301.5004822446874 472.5816459274952 1294.9488710390253 467.82129920877435Q1288.4217977030473 463.03641462036944 1288.4217977030473 453.147653137666L1288.4217977030473 453.147653137666Q1288.4217977030473 443.2588916549625 1295.7586207386014 436.8054319280369Q1303.0709059044714 430.3519722011114 1318.9714454597863 426.4749887910192L1318.9714454597863 426.4749887910192Q1324.8114584446087 425.05179234933973 1330.013486817644 424.34019412850006Q1335.240053060363 423.65313377734446 1338.4054382496154 423.28506573208256L1338.4054382496154 423.28506573208256Q1338.2336731618263 418.6964841011507 1337.963756595301 414.8931143001109Q1337.71837789846 411.0897444990711 1337.178544765409 408.6359575306583L1337.178544765409 408.6359575306583Q1335.5835832359408 401.0292179285787 1331.3385317805867 398.207362914904Q1327.1180181949169 395.38550790122935 1322.504898694301 395.38550790122935L1322.504898694301 395.38550790122935Q1318.2843851086307 395.38550790122935 1315.0944620496941 397.05408303975Q1311.9045389907576 398.7226581782707 1309.6225171101335 401.0292179285787L1309.6225171101335 401.0292179285787Q1308.371085756243 404.3909060753042 1307.4877224476145 407.997972918871Q1306.604359138986 411.6295776321219 1306.2608289634081 416.2181592630538L1306.2608289634081 416.2181592630538L1294.2372728181856 417.4695906169443Q1293.8937426426078 413.93613738242993 1293.721977554819 410.4026841479155Q1293.55021246703 406.8692309134011 1293.55021246703 404.0228380300423L1293.55021246703 404.0228380300423Q1293.55021246703 401.3727481041565 1293.6238260760824 399.80232444437235Q1293.721977554819 398.207362914904 1293.8937426426078 397.49576469406435L1293.8937426426078 397.49576469406435Q1300.077285803008 394.13407654733885 1309.0090703680305 390.96869135808635Q1317.9163170633688 387.77876829914976 1329.7681081208025 387.77876829914976L1329.7681081208025 387.77876829914976Q1342.6504897049695 387.77876829914976 1347.9506695567413 393.17709962965785Q1353.2508494085125 398.55089309048185 1353.2508494085125 412.3411758529616L1353.2508494085125 412.3411758529616Q1353.2508494085125 415.50656104221406 1353.079084320724 418.5983326224142Q1352.907319232935 421.6901042026143 1352.5392511876728 425.59162548239055L1352.5392511876728 425.59162548239055Q1352.1957210120952 431.4071005975288 1352.0239559243062 435.1368567895163Q1351.8521908365176 438.84207511181955 1351.8521908365176 442.89082360970065L1351.8521908365176 442.89082360970065Q1351.8521908365176 448.0192383736833 1352.4656375786205 452.8041229620882Q1353.079084320724 457.564469680809 1355.1893411135588 460.4844761732202Q1357.3241357760778 463.40448266563135 1362.0844824947987 463.40448266563135L1362.0844824947987 463.40448266563135L1363.8512091120558 463.40448266563135L1365.4461706415243 468.704662517403Q1363.8512091120558 469.39172286855853 1360.1459907897527 470.814919310238Q1356.4407724674495 472.23811575191735 1351.8521908365176 472.23811575191735L1351.8521908365176 472.23811575191735Q1345.3005796308553 472.23811575191735 1342.4787246171807 468.8764276051919Q1339.6568696035058 465.5147394584664 1338.7735062948775 459.674726473644L1338.7735062948775 459.674726473644Q1336.8350145898312 462.32481639952977 1333.3015613553168 465.3429743706775Q1329.7681081208025 468.3365944721411 1324.3697767902943 470.47138913466017Q1318.9714454597863 472.5816459274952 1311.5610088151795 472.5816459274952ZM1305.7209958303572 449.7859649909405L1305.7209958303572 449.7859649909405Q1305.7209958303572 455.6259779757629 1309.0826839770828 458.8895146437519Q1312.4443721238083 462.1530513117409 1318.6279152842085 462.1530513117409L1318.6279152842085 462.1530513117409Q1325.6948217532374 462.1530513117409 1330.82323651722 458.4478329894376Q1335.9516512812027 454.7426146671343 1337.522074940987 450.841093387358L1337.522074940987 450.841093387358Q1338.2336731618263 443.08712656717364 1338.4054382496154 433.173827214786L1338.4054382496154 433.173827214786Q1336.4669465445693 432.83029703920823 1333.91500809742 432.38861538489397Q1331.3385317805867 431.94693373057964 1328.3449116791232 431.94693373057964L1328.3449116791232 431.94693373057964Q1317.572786887791 431.94693373057964 1311.6591602939163 436.9771970158258Q1305.7209958303572 442.007460301072 1305.7209958303572 449.7859649909405ZM1398.302378148571 474.17660745696344L1398.302378148571 474.17660745696344Q1390.8919415039647 474.17660745696344 1384.610246864828 472.67979740623167Q1378.3530900953754 471.15844948581577 1374.9914019486498 469.93155600160935L1374.9914019486498 469.93155600160935L1374.6233339033877 462.5211193570028Q1374.451568815599 460.2145596066948 1374.7214853821245 456.411189805655Q1374.9914019486498 452.6078200046152 1375.7030001694895 448.38730641894523L1375.7030001694895 448.38730641894523L1386.9904202241885 449.61419990315164Q1386.9904202241885 452.0925247412485 1387.2603367907138 455.3560614092375Q1387.5302533572392 458.6195980772265 1388.4136166658677 461.8095211361631L1388.4136166658677 461.8095211361631Q1390.5238734587026 463.57624775342026 1393.4438799511138 464.9012927163632Q1396.363886443525 466.2263376793061 1400.0691047658283 466.2263376793061L1400.0691047658283 466.2263376793061Q1407.3077763226463 466.2263376793061 1411.5528277780002 461.8095211361631Q1415.7978792333543 457.3927045930201 1415.7978792333543 452.43605491682627L1415.7978792333543 452.43605491682627Q1415.7978792333543 446.7923448894769 1410.8412295571604 443.160740176226Q1405.909117750651 439.55367333265923 1399.5538095024617 436.19198518593373L1399.5538095024617 436.19198518593373L1396.1921213557362 434.42525856867655Q1392.4869030334328 432.48676686363046 1387.8737835328168 429.46860889248273Q1383.285201901885 426.4749887910192 1379.9235137551595 421.8864071600873Q1376.5863634781183 417.2732876594713 1376.5863634781183 410.5744492357044L1376.5863634781183 410.5744492357044Q1376.5863634781183 401.5690510616295 1384.0949516014614 394.943826246915Q1391.6035397248045 388.3186014322006 1407.1360112348573 388.3186014322006L1407.1360112348573 388.3186014322006Q1415.2580461003033 388.3186014322006 1421.1962105638625 389.81541148293235Q1427.1098371577373 391.3122215336641 1428.3367306419436 391.85205466671493L1428.3367306419436 391.85205466671493Q1428.5084957297324 393.2507132387102 1428.5084957297324 395.11559133470394Q1428.5084957297324 396.95593156101353 1428.5084957297324 398.91896113574376L1428.5084957297324 398.91896113574376Q1428.5084957297324 402.2561114127851 1428.3367306419436 405.7159510382471Q1428.1649655541548 409.151252794025 1427.8214353785768 411.457812544333L1427.8214353785768 411.457812544333L1417.5646058506115 410.20638119044247Q1417.3928407628225 406.3293977803503 1415.969644321143 400.48938479552794L1415.969644321143 400.48938479552794Q1413.6876224405194 398.55089309048185 1410.4976993815826 397.05408303975Q1407.3077763226463 395.55727298901826 1403.259027824765 395.55727298901826L1403.259027824765 395.55727298901826Q1397.9588479729935 395.55727298901826 1394.3272432597425 398.37912800269294Q1390.7201764161757 401.2009830163676 1390.7201764161757 406.15763269256144L1390.7201764161757 406.15763269256144Q1390.7201764161757 411.457812544333 1394.6953113050045 415.0648793878998Q1398.6704461938332 418.6964841011507 1404.1423911333936 421.5183391148254L1404.1423911333936 421.5183391148254L1407.675844367908 423.28506573208256Q1413.1477893074687 425.9351556579684 1418.4479691592398 429.2968438046939Q1423.7481490110117 432.6585319514194 1427.281602245526 437.34526506108773Q1430.8150554800407 442.007460301072 1430.8150554800407 449.0743667701008L1430.8150554800407 449.0743667701008Q1430.8150554800407 459.5029613858551 1422.2513389602798 466.83978442140926Q1413.6876224405194 474.17660745696344 1398.302378148571 474.17660745696344ZM1487.5220723200598 470.814919310238L1444.4090352850471 470.814919310238L1443.010376713052 462.5211193570028L1444.777103330309 462.5211193570028Q1451.475941754076 462.5211193570028 1454.7640162917492 459.94464304016935Q1458.0275529597382 457.3927045930201 1458.739151180578 452.2642898290374L1458.739151180578 452.2642898290374Q1459.2544464439445 449.2706697275738 1459.5243630104699 443.2588916549625Q1459.7942795769952 437.24711358235123 1459.8678931860477 429.91029054679706Q1459.9660446647842 422.5734675112429 1459.9660446647842 415.9482426965284Q1459.9660446647842 409.3230178818139 1459.9660446647842 405.10250429614393L1459.9660446647842 405.10250429614393Q1459.9660446647842 396.7841664732246 1459.8678931860477 388.56398012904185Q1459.7942795769952 380.36833165454317 1459.4262115317335 372.9333571402525L1459.4262115317335 372.9333571402525Q1459.2544464439445 368.34477550932064 1455.6473796003777 367.461412200692Q1452.0157748871268 366.5780488920634 1444.0655051094693 366.5780488920634L1444.0655051094693 366.5780488920634L1443.1821418008406 358.45601402661714Q1447.255428168406 358.45601402661714 1452.4574565414412 358.08794598135523Q1457.659484914476 357.74441580577746 1462.7878996784589 357.20458267272664Q1467.9163144424417 356.6892874093599 1471.793297852534 356.0758406672567Q1475.6948191323102 355.4378560554694 1476.9217126165165 355.09432587989164L1476.9217126165165 355.09432587989164Q1476.0383493078878 362.5047625244982 1475.4249025657846 373.2032737067779Q1474.8114558236814 383.9017848890576 1474.4433877784195 395.82718955554367Q1474.0998576028417 407.7525942220297 1473.9280925150529 418.86824918893956L1473.9280925150529 418.86824918893956Q1476.40641735315 419.4080823219904 1479.4000374546133 419.8497639763047Q1482.3936575560767 420.29144563061897 1485.240050439436 420.29144563061897L1485.240050439436 420.29144563061897Q1487.1785421444818 419.23631723420146 1490.6138439002598 414.45143264579656Q1494.0736835257217 409.6910859270758 1498.4905000688648 403.1394747214137L1498.4905000688648 403.1394747214137Q1499.545628465282 401.5690510616295 1499.545628465282 400.317619707739L1499.545628465282 400.317619707739Q1499.545628465282 397.1522345184865 1494.5889787890885 397.1522345184865L1494.5889787890885 397.1522345184865L1493.7056154804598 390.08532804945776Q1496.0121752307678 390.25709313724667 1498.2205835023392 390.4288582250356Q1500.4289917739109 390.60062331282444 1504.134210096214 390.60062331282444L1504.134210096214 390.60062331282444Q1507.8394284185172 390.60062331282444 1513.6794414033395 390.4288582250356Q1519.494916518478 390.25709313724667 1524.7950963702497 390.08532804945776L1524.7950963702497 390.08532804945776L1526.561822987507 396.61240138543576Q1523.3964377982545 396.7841664732246 1520.4764313058429 398.207362914904Q1517.5564248134317 399.6060214868993 1513.8512064911286 403.1394747214137L1513.8512064911286 403.1394747214137Q1510.489518344403 406.3293977803503 1507.0542165886252 410.5744492357044Q1503.5943769631633 414.8195006910585 1500.6007568617 418.7946355798872Q1497.607136760236 422.7697704687159 1495.840410142979 425.4198603946017L1495.840410142979 425.4198603946017Q1497.410833802763 429.12507871690497 1500.8706734282252 435.21047039856865Q1504.305975184003 441.32039994991646 1509.3362384692493 447.50394311031664Q1514.3910396241795 453.6874862707168 1520.7463478723685 457.90799985638677Q1527.1016561205577 462.1530513117409 1534.5120927651642 462.32481639952977L1534.5120927651642 462.32481639952977L1536.1070542946325 469.39172286855853Q1530.8068744428608 470.814919310238 1526.4882093784545 471.60013114013003Q1522.1450064443636 472.40988083970626 1518.2680230342717 472.40988083970626L1518.2680230342717 472.40988083970626Q1517.5564248134317 472.40988083970626 1516.6730615048034 472.40988083970626Q1515.7896981961746 472.40988083970626 1514.906334887546 472.23811575191735L1514.906334887546 472.23811575191735Q1510.8575863896651 471.5265175310777 1506.1708532799964 466.66801933362035Q1501.4841201703282 461.8095211361631 1496.8955385393965 455.01253123365973Q1492.3069569084646 448.1910034614722 1488.405435628688 441.1240969924434Q1484.528452218596 434.05719052341465 1481.87836229271 429.12507871690497L1481.87836229271 429.12507871690497Q1479.7435676301911 429.12507871690497 1477.6333108373562 429.12507871690497Q1475.5230540445211 429.12507871690497 1473.756327427264 429.12507871690497L1473.756327427264 429.12507871690497Q1473.560024469791 434.59702365646547 1473.560024469791 439.1856052873973Q1473.560024469791 443.77418691832924 1473.560024469791 447.50394311031664L1473.560024469791 447.50394311031664Q1473.560024469791 457.2209395052312 1476.5781824409385 460.5580897822726Q1479.5718025424023 463.9197779289981 1485.4118155272247 463.9197779289981L1485.4118155272247 463.9197779289981L1486.1234137480644 463.9197779289981L1487.5220723200598 470.814919310238ZM1579.9316895504846 473.46500923612376L1579.9316895504846 473.46500923612376Q1569.6748600225192 473.46500923612376 1561.0129920240222 469.2199577807697Q1552.375661895209 464.97490632541553 1547.2472471312265 456.33757619660264Q1542.1188323672438 447.67570819810555 1542.1188323672438 434.25349348088764L1542.1188323672438 434.25349348088764Q1542.1188323672438 419.92337758535706 1547.762542394593 409.5929344483393Q1553.4307902916266 399.2624913113215 1562.5343399444382 393.790546371761Q1571.6133517275653 388.3186014322006 1581.8701812555307 388.3186014322006L1581.8701812555307 388.3186014322006Q1590.5320492540277 388.3186014322006 1597.50080424432 392.3673499300816Q1604.4940971042963 396.44063629764685 1608.6409970809138 404.3909060753042Q1612.7878970575314 412.3411758529616 1612.7878970575314 423.9966639529223L1612.7878970575314 423.9966639529223Q1612.7878970575314 425.76339057017947 1612.7878970575314 427.43196570870015Q1612.7878970575314 429.12507871690497 1612.4443668819538 431.06357042195106L1612.4443668819538 431.06357042195106L1558.5592050556095 431.4071005975288Q1558.7309701433983 439.72543842044814 1561.0129920240222 447.0622614560023Q1563.31955177433 454.37454662187235 1569.061413280416 458.9876661224884Q1574.803274786502 463.57624775342026 1585.0601043144673 463.57624775342026L1585.0601043144673 463.57624775342026Q1591.9307078260229 463.57624775342026 1596.6174409356915 461.8095211361631Q1601.3041740453598 460.0427945189059 1603.8561124925093 458.1779164229122Q1606.4325888093426 456.33757619660264 1606.7761189849205 455.7977430635518L1606.7761189849205 455.7977430635518L1609.597973998595 460.3863246944837Q1608.1993154265995 462.1530513117409 1604.6658621920853 465.24482289194094Q1601.1324089575708 468.3365944721411 1595.022479406223 470.91307078897444Q1588.9370877245594 473.46500923612376 1579.9316895504846 473.46500923612376ZM1579.0483262418559 396.26887120985793L1579.0483262418559 396.26887120985793Q1571.0980564641989 396.26887120985793 1565.5279600459016 403.777459333201Q1559.9578636276046 411.2860474565441 1558.7309701433983 424.5364970859731L1558.7309701433983 424.5364970859731L1586.9985960195133 421.6901042026143L1595.6604640180105 421.6901042026143Q1595.6604640180105 415.1630308666363 1593.7955859220167 409.3230178818139Q1591.9307078260229 403.5075427666756 1588.3236409824565 399.8759380534247Q1584.6920362692053 396.26887120985793 1579.0483262418559 396.26887120985793ZM1652.8827761213963 473.121479060546L1652.8827761213963 473.121479060546Q1643.5338477717435 473.121479060546 1639.2887963163896 467.82129920877435Q1635.0437448610357 462.5211193570028 1635.0437448610357 452.2642898290374L1635.0437448610357 452.2642898290374Q1635.0437448610357 450.3257981239913 1635.2155099488243 447.8474732858944Q1635.4118129062974 445.3691484477975 1635.927108169664 438.30224197876873L1635.927108169664 438.30224197876873Q1636.295176214926 433.00206212699715 1636.6387063905038 426.64675387880806Q1636.9822365660814 420.29144563061897 1636.9822365660814 414.2796675580077L1636.9822365660814 414.2796675580077Q1636.9822365660814 411.2860474565441 1636.9822365660814 408.36604096413294Q1636.9822365660814 405.4460344717217 1636.8104714782928 402.624179458047L1636.8104714782928 402.624179458047Q1634.8719797732467 402.0843463249962 1630.8968448844178 401.2991344951041Q1626.9217099955893 400.48938479552794 1622.3331283646573 400.48938479552794L1622.3331283646573 400.48938479552794L1621.081697010767 391.3122215336641L1637.6938347869211 391.3122215336641L1637.6938347869211 366.40628380427455L1652.8827761213963 363.044595657549Q1652.3674808580297 369.3999039057381 1651.9994128127676 376.63857546255576Q1651.65588263719 383.9017848890576 1651.3123524616124 391.3122215336641L1651.3123524616124 391.3122215336641L1672.3167689112254 391.3122215336641L1673.9117304406939 400.1458546199501L1651.116049504139 401.91258123720735Q1650.2326861955105 409.6910859270758 1649.9873074986692 419.5798474097793Q1649.7173909321439 429.46860889248273 1649.7173909321439 440.60880172907673L1649.7173909321439 440.60880172907673Q1649.7173909321439 450.1540330362024 1651.116049504139 454.37454662187235L1651.116049504139 454.37454662187235Q1652.5392459458187 458.27606790164873 1655.9745477015965 460.0427945189059Q1659.4343873270584 461.8095211361631 1663.3113707371506 461.8095211361631L1663.3113707371506 461.8095211361631Q1668.6115505889222 461.8095211361631 1673.7399653529048 458.6195980772265L1673.7399653529048 458.6195980772265L1677.2734185874194 463.20817970815835Q1675.678457057951 464.97490632541553 1672.1450038234364 467.2814660757236Q1668.6115505889222 469.5880258260316 1663.6794387824125 471.35475244328876Q1658.7227891062187 473.121479060546 1652.8827761213963 473.121479060546Z " fill="#1e1e1e" transform="matrix(0.521680033868446,0,0,0.521680033868446,0,76.46044096272249)"/></g></svg>